<svg xmlns="http://www.w3.org/2000/svg" width="100%" height="100%" viewBox="0 0 512 512" fill-rule="evenodd" clip-rule="evenodd" stroke-linejoin="round" stroke-miterlimit="2"><g transform="matrix(1,0,0,1,-1486.15,-145.193)"><g id="Plan-de-travail1" transform="matrix(9.76562,0,0,9.76562,0,0)"><rect x="0" y="0" width="512" height="512" fill="none"></rect><g id="logo" transform="matrix(0.30424,0,0,0.270437,151.933,14.8526)"><path id="shape.secondary" d="M86.983,0.056C39.397,0.056 0.819,38.631 0.819,86.219L0.819,107.76C0.819,155.349 39.397,193.923 86.983,193.923L173.146,193.923L173.146,86.22C173.146,38.63 134.569,0.056 86.983,0.056" fill="#FA541C"></path><path d="M151.605,159.219L121.687,159.219L121.687,91.604C121.687,72.469 106.118,56.9 86.983,56.9C67.847,56.9 52.278,72.469 52.278,91.604L35.524,91.604C35.524,63.23 58.609,40.146 86.983,40.146C115.357,40.146 138.441,63.23 138.441,91.604L138.441,142.464L151.605,142.464L151.605,159.219ZM101.343,107.76C101.343,115.692 94.914,122.12 86.983,122.12C79.053,122.12 72.623,115.692 72.623,107.76C72.623,99.83 79.053,93.4 86.983,93.4C94.914,93.4 101.343,99.83 101.343,107.76Z" fill="#fff"></path></g></g></g></svg>